# xmcd
#
# Track frame offsets: 
#        150
#        27065
#        42617
#        58967
#        74922
#        91320
#        108295
#        129682
#        149130
#        166667
#        192955
#        210442
#
# Disc length: 3060 seconds
#
# Revision: 0
# Processed by: cddbd v1.5.1PL0 Copyright (c) Steve Scherf et al.
# Submitted via: ExactAudioCopy v0.95a5
#
DISCID=b80bf20c
DTITLE=Jealous Joe and the T-Bones - Nighthawk
DYEAR=1995
DGENRE=Blues
TTITLE0=Stickin´
TTITLE1=Jealous Joe
TTITLE2=Nighthawk
TTITLE3=Blue
TTITLE4=Middle name is trouble
TTITLE5=She´s into something
TTITLE6=My Babe
TTITLE7=She´s tuff
TTITLE8=Tell me
TTITLE9=Right place, wrong time
TTITLE10=I wish
TTITLE11=T-Bone Boogie
EXTD=
EXTT0=
EXTT1=
EXTT2=
EXTT3=
EXTT4=
EXTT5=
EXTT6=
EXTT7=
EXTT8=
EXTT9=
EXTT10=
EXTT11=
PLAYORDER=
